<svg width="110" height="63" viewBox="0 0 110 63" fill="none" xmlns="http://www.w3.org/2000/svg">
<path fill-rule="evenodd" clip-rule="evenodd" d="M54.0317 52.2208C48.3428 58.3953 40.189 62.2631 31.1318 62.2631C13.938 62.2631 0 48.3251 0 31.1316C0 13.9381 13.938 0 31.1318 0C38.4834 0 45.2402 2.54846 50.5664 6.81018C53.9824 7.38733 57.125 9.42737 58.9927 12.6622L62.1831 18.1887C63.0962 17.1768 64.1714 16.3317 65.356 15.6841C67.9766 14.2513 71.1318 13.7856 74.2446 14.6198C80.666 16.3405 84.4771 22.941 82.7563 29.3627L77.1274 50.3704C76.2319 53.7115 74.0156 56.3459 71.1895 57.863C65.4321 61.187 58.0698 59.2144 54.7456 53.4569L54.0317 52.2208ZM51.9214 48.5653C46.9443 54.4943 39.478 58.2631 31.1318 58.2631C16.147 58.2631 4 46.1158 4 31.1316C4 16.1472 16.147 4 31.1318 4C35.9185 4 40.416 5.23975 44.3203 7.41565C43.7178 7.6438 43.125 7.92346 42.5488 8.2561C36.7915 11.5802 34.8188 18.9423 38.1431 24.6997L51.9214 48.5653ZM69.2427 54.3679L69.2993 54.3378C71.1919 53.3218 72.6655 51.5662 73.2637 49.335L78.8926 28.3274C80.0415 24.0396 77.4971 19.6324 73.209 18.4835C71.1289 17.9261 69.0293 18.2347 67.2749 19.1938C66.481 19.6279 65.7617 20.1935 65.1528 20.8683L64.1729 21.9542L68.8994 30.1406C69.4556 31.1042 69.1187 32.3368 68.1489 32.8831C67.1938 33.4213 65.9834 33.0901 65.4351 32.1406L55.4121 14.7805C54.833 13.777 53.9408 12.5341 52.5225 11.6823C49.853 10.0789 47.1021 10.2461 44.5488 11.7202C40.7046 13.9397 39.3877 18.8553 41.6069 22.6997L58.21 51.4569C60.4292 55.3007 65.3438 56.618 69.1875 54.3999L69.2427 54.3679Z" fill="#242424"/>
<path fill-rule="evenodd" clip-rule="evenodd" d="M85.6406 37.3628C87.3613 30.9412 93.9619 27.1302 100.384 28.851C106.805 30.5717 110.616 37.1722 108.895 43.5939L107.727 47.9545C106.006 54.3761 99.4058 58.1869 92.9839 56.4663C86.5625 54.7456 82.7515 48.145 84.4722 41.7234L85.6406 37.3628ZM105.032 42.5586L103.863 46.9192C102.714 51.2069 98.3071 53.7515 94.0195 52.6025C89.7314 51.4537 87.187 47.0464 88.3359 42.7585L89.5044 38.3981C90.6533 34.1104 95.0605 31.5658 99.3481 32.7147C103.636 33.8636 106.181 38.2709 105.032 42.5586Z" fill="#242424"/>
</svg>
