<svg width="50" height="50" viewBox="0 0 50 50" fill="none" xmlns="http://www.w3.org/2000/svg">
<path d="M25.0003 4.25C13.542 4.25 4.16699 13.6042 4.16699 25.125C4.16699 35.5417 11.792 44.1875 21.7503 45.75V31.1667H16.4587V25.125H21.7503V20.5208C21.7503 15.2917 24.8545 12.4167 29.6253 12.4167C31.8962 12.4167 34.2712 12.8125 34.2712 12.8125V17.9583H31.6462C29.0628 17.9583 28.2503 19.5625 28.2503 21.2083V25.125H34.042L33.1045 31.1667H28.2503V45.75C33.1596 44.9747 37.6299 42.4698 40.8543 38.6876C44.0788 34.9054 45.8448 30.0951 45.8337 25.125C45.8337 13.6042 36.4587 4.25 25.0003 4.25Z" fill="url(#paint0_linear)"/>
<defs>
<linearGradient id="paint0_linear" x1="5.50053" y1="9.18308" x2="46.7309" y2="45.0909" gradientUnits="userSpaceOnUse">
<stop stop-color="#4D10CF"/>
<stop offset="1" stop-color="#9C1F64"/>
</linearGradient>
</defs>
</svg>
