<svg width="50" height="50" viewBox="0 0 50 50" fill="none" xmlns="http://www.w3.org/2000/svg">
<path d="M25.0003 4.1665C22.2645 4.1665 19.5554 4.70537 17.0278 5.75235C14.5001 6.79932 12.2035 8.33389 10.2689 10.2684C6.36193 14.1755 4.16699 19.4745 4.16699 24.9998C4.16699 34.2082 10.1462 42.0207 18.417 44.7915C19.4587 44.9582 19.792 44.3123 19.792 43.7498C19.792 43.2707 19.792 41.9582 19.792 40.229C14.0212 41.479 12.792 37.4373 12.792 37.4373C11.8337 35.0207 10.4795 34.3748 10.4795 34.3748C8.58366 33.0832 10.6253 33.1248 10.6253 33.1248C12.7087 33.2707 13.8128 35.2707 13.8128 35.2707C15.6253 38.4373 18.6878 37.4998 19.8753 36.9998C20.0628 35.6457 20.6045 34.729 21.1878 34.2082C16.5628 33.6873 11.7087 31.8957 11.7087 23.9582C11.7087 21.6457 12.5003 19.7915 13.8545 18.3123C13.6462 17.7915 12.917 15.6248 14.0628 12.8123C14.0628 12.8123 15.8128 12.2498 19.792 14.9373C21.4378 14.479 23.2295 14.2498 25.0003 14.2498C26.7712 14.2498 28.5628 14.479 30.2087 14.9373C34.1878 12.2498 35.9378 12.8123 35.9378 12.8123C37.0837 15.6248 36.3545 17.7915 36.1462 18.3123C37.5003 19.7915 38.292 21.6457 38.292 23.9582C38.292 31.9165 33.417 33.6665 28.7712 34.1873C29.5212 34.8332 30.2087 36.104 30.2087 38.0415C30.2087 40.8332 30.2087 43.0832 30.2087 43.7498C30.2087 44.3123 30.542 44.979 31.6045 44.7915C39.8753 41.9998 45.8337 34.2082 45.8337 24.9998C45.8337 22.264 45.2948 19.5549 44.2478 17.0273C43.2008 14.4996 41.6663 12.203 39.7317 10.2684C37.7972 8.33389 35.5005 6.79932 32.9729 5.75235C30.4453 4.70537 27.7362 4.1665 25.0003 4.1665Z" fill="black"/>
<path d="M25.0003 4.1665C22.2645 4.1665 19.5554 4.70537 17.0278 5.75235C14.5001 6.79932 12.2035 8.33389 10.2689 10.2684C6.36193 14.1755 4.16699 19.4745 4.16699 24.9998C4.16699 34.2082 10.1462 42.0207 18.417 44.7915C19.4587 44.9582 19.792 44.3123 19.792 43.7498C19.792 43.2707 19.792 41.9582 19.792 40.229C14.0212 41.479 12.792 37.4373 12.792 37.4373C11.8337 35.0207 10.4795 34.3748 10.4795 34.3748C8.58366 33.0832 10.6253 33.1248 10.6253 33.1248C12.7087 33.2707 13.8128 35.2707 13.8128 35.2707C15.6253 38.4373 18.6878 37.4998 19.8753 36.9998C20.0628 35.6457 20.6045 34.729 21.1878 34.2082C16.5628 33.6873 11.7087 31.8957 11.7087 23.9582C11.7087 21.6457 12.5003 19.7915 13.8545 18.3123C13.6462 17.7915 12.917 15.6248 14.0628 12.8123C14.0628 12.8123 15.8128 12.2498 19.792 14.9373C21.4378 14.479 23.2295 14.2498 25.0003 14.2498C26.7712 14.2498 28.5628 14.479 30.2087 14.9373C34.1878 12.2498 35.9378 12.8123 35.9378 12.8123C37.0837 15.6248 36.3545 17.7915 36.1462 18.3123C37.5003 19.7915 38.292 21.6457 38.292 23.9582C38.292 31.9165 33.417 33.6665 28.7712 34.1873C29.5212 34.8332 30.2087 36.104 30.2087 38.0415C30.2087 40.8332 30.2087 43.0832 30.2087 43.7498C30.2087 44.3123 30.542 44.979 31.6045 44.7915C39.8753 41.9998 45.8337 34.2082 45.8337 24.9998C45.8337 22.264 45.2948 19.5549 44.2478 17.0273C43.2008 14.4996 41.6663 12.203 39.7317 10.2684C37.7972 8.33389 35.5005 6.79932 32.9729 5.75235C30.4453 4.70537 27.7362 4.1665 25.0003 4.1665Z" fill="url(#paint0_linear)"/>
<defs>
<linearGradient id="paint0_linear" x1="5.50053" y1="8.99941" x2="45.9992" y2="45.0011" gradientUnits="userSpaceOnUse">
<stop stop-color="#4D10CF"/>
<stop offset="1" stop-color="#9C1F64"/>
</linearGradient>
</defs>
</svg>
