<svg width="50" height="50" viewBox="0 0 50 50" fill="none" xmlns="http://www.w3.org/2000/svg">
<path d="M41.667 37.5002H37.5003V19.271L25.0003 27.0835L12.5003 19.271V37.5002H8.33366V12.5002H10.8337L25.0003 21.3543L39.167 12.5002H41.667V37.5002ZM41.667 8.3335H8.33366C6.02116 8.3335 4.16699 10.1877 4.16699 12.5002V37.5002C4.16699 38.6052 4.60598 39.665 5.38738 40.4464C6.16878 41.2278 7.22859 41.6668 8.33366 41.6668H41.667C42.7721 41.6668 43.8319 41.2278 44.6133 40.4464C45.3947 39.665 45.8337 38.6052 45.8337 37.5002V12.5002C45.8337 10.1877 43.9587 8.3335 41.667 8.3335Z" fill="black"/>
<path d="M41.667 37.5002H37.5003V19.271L25.0003 27.0835L12.5003 19.271V37.5002H8.33366V12.5002H10.8337L25.0003 21.3543L39.167 12.5002H41.667V37.5002ZM41.667 8.3335H8.33366C6.02116 8.3335 4.16699 10.1877 4.16699 12.5002V37.5002C4.16699 38.6052 4.60598 39.665 5.38738 40.4464C6.16878 41.2278 7.22859 41.6668 8.33366 41.6668H41.667C42.7721 41.6668 43.8319 41.2278 44.6133 40.4464C45.3947 39.665 45.8337 38.6052 45.8337 37.5002V12.5002C45.8337 10.1877 43.9587 8.3335 41.667 8.3335Z" fill="url(#paint0_linear)"/>
<defs>
<linearGradient id="paint0_linear" x1="5.50053" y1="12.2958" x2="38.825" y2="48.4288" gradientUnits="userSpaceOnUse">
<stop stop-color="#4D10CF"/>
<stop offset="1" stop-color="#9C1F64"/>
</linearGradient>
</defs>
</svg>
